<svg xmlns:xlink="http://www.w3.org/1999/xlink" width="96" height="15" viewBox="0 0 96 15" fill="none" xmlns="http://www.w3.org/2000/svg" class="logo" data-v-d7b9735c=""><g clip-path="url(#clip0)" data-v-d7b9735c="" fill="#141414"><path d="M33.1713 9.87502C34.194 11.2881 35.182 12.6499 36.222 14.0801C36.014 14.1058 35.8753 14.1315 35.7367 14.1315C34.584 14.1315 33.4313 14.1229 32.27 14.14C31.9233 14.1486 31.698 14.0458 31.4987 13.7547C30.8313 12.7869 30.112 11.8448 29.4447 10.8685C29.1847 10.4831 28.8987 10.3032 28.396 10.3204C27.2347 10.3632 27.2347 10.3289 27.2347 11.5022C27.2347 12.2902 27.2347 13.0866 27.226 13.8746C27.226 13.9345 27.2087 13.9859 27.2 14.0887C26.0213 14.0887 24.834 14.0887 23.6033 14.0887C23.6033 9.43824 23.6033 4.7707 23.6033 0.0517714C23.7247 0.0346428 23.872 0.00894995 24.0193 0.00894995C26.3073 0.00894995 28.5953 -0.00817865 30.892 0.0175142C33.856 0.0517714 35.7887 1.94448 35.91 4.84778C36.014 7.04024 35.2167 8.7531 33.1713 9.87502ZM27.252 3.38328C27.252 4.5309 27.2433 5.62713 27.2693 6.72336C27.2693 6.8347 27.46 7.04024 27.564 7.04024C28.7167 7.03168 29.878 7.05737 31.022 6.94603C31.88 6.86039 32.426 6.01252 32.374 5.11327C32.3133 4.15407 31.75 3.44323 30.8747 3.40041C29.696 3.34046 28.5173 3.38328 27.252 3.38328Z" fill="#141414" data-v-d7b9735c=""></path><path d="M16.3746 14.14C15.1266 14.14 13.8786 14.1486 12.6392 14.1314C12.5266 14.1314 12.4052 13.9859 12.3012 13.8916C12.2492 13.8403 12.2406 13.7546 12.2059 13.6775C11.9806 13.1466 11.8939 12.4272 11.4952 12.1445C11.1139 11.879 10.4032 12.0675 9.83122 12.0675C8.73055 12.0675 7.63855 12.076 6.53789 12.0589C6.18255 12.0503 5.96589 12.1274 5.84455 12.4957C5.66255 13.0438 5.55855 13.7889 5.15989 14.0372C4.72655 14.3113 3.98989 14.1314 3.38322 14.1314C2.68122 14.14 1.97922 14.1314 1.19055 14.1314C1.26855 13.9002 1.31189 13.7204 1.38122 13.5491C3.17522 9.18128 4.97789 4.82206 6.76322 0.454264C6.91055 0.137385 7.07522 -0.00820782 7.45655 0.00035648C8.39255 0.0260494 9.33722 -0.00820782 10.2732 0.0260494C10.4552 0.0346137 10.7239 0.180207 10.7846 0.334364C12.6566 4.85631 14.5112 9.38683 16.3659 13.9088C16.3919 13.9602 16.3746 14.0201 16.3746 14.14ZM10.3166 8.71025C9.81389 7.38278 9.34589 6.14096 8.82589 4.76211C8.29722 6.15809 7.82055 7.40847 7.31789 8.71025C8.34055 8.71025 9.28522 8.71025 10.3166 8.71025Z" fill="#141414" data-v-d7b9735c=""></path><path d="M82.8834 0.12027C85.4574 0.12027 88.0141 -0.0424522 90.5361 0.163091C92.9108 0.351506 94.6008 2.37268 94.7741 4.7193C94.8868 6.19236 94.7048 7.60547 93.7861 8.84729C92.8154 10.1662 91.4548 10.8171 89.8341 10.9027C88.7681 10.9541 87.6934 10.9113 86.5841 10.9113C86.5841 12.0161 86.5841 13.0352 86.5841 14.0972C85.3448 14.0972 84.1401 14.0972 82.8834 14.0972C82.8834 9.43823 82.8834 4.77068 82.8834 0.12027ZM86.5841 7.56265C87.5201 7.56265 88.3954 7.5969 89.2708 7.55408C90.2934 7.50269 90.9088 6.89463 91.0301 5.87548C91.1774 4.65078 90.7528 3.69158 89.7734 3.51173C88.7421 3.31475 87.6674 3.36614 86.5928 3.30619C86.5841 4.80494 86.5841 6.14954 86.5841 7.56265Z" fill="#141414" data-v-d7b9735c=""></path><path d="M68.6527 3.79439C69.476 2.62108 70.2473 1.53342 70.9927 0.428622C71.2007 0.120307 71.426 0.000406643 71.7987 0.00897094C73.064 0.0346638 74.3207 0.0175352 75.69 0.0175352C75.508 0.300157 75.3953 0.497136 75.2653 0.676986C73.896 2.67247 72.5354 4.66795 71.1574 6.65487C70.958 6.93749 70.958 7.11734 71.1574 7.40853C72.5787 9.43826 73.9913 11.4766 75.3953 13.5149C75.5167 13.6862 75.6293 13.866 75.82 14.1486C75.508 14.1486 75.2827 14.1486 75.066 14.1486C74.052 14.1486 73.0293 14.1058 72.0153 14.1658C71.4433 14.2 71.1313 13.9945 70.8453 13.5406C70.1607 12.47 69.4154 11.4337 68.6527 10.3375C67.8467 11.5108 67.0754 12.6242 66.3387 13.7547C66.1307 14.063 65.9054 14.1743 65.5327 14.1658C64.224 14.1401 62.924 14.1572 61.5374 14.1572C61.6674 13.9431 61.7454 13.7975 61.8407 13.6605C63.2534 11.6222 64.6487 9.57529 66.0874 7.56268C66.382 7.1516 66.3387 6.8861 66.07 6.50927C64.5967 4.40246 63.158 2.26995 61.624 0.0260995C62.014 0.0260995 62.3087 0.0260995 62.6033 0.0260995C63.6 0.0260995 64.5967 0.0432281 65.602 0.0175352C65.9313 0.00897094 66.1307 0.111743 66.3127 0.3858C67.058 1.49916 67.8294 2.60395 68.6527 3.79439Z" fill="#141414" data-v-d7b9735c=""></path><path d="M47.2114 3.56314C45.6947 3.56314 44.256 3.56314 42.774 3.56314C42.774 2.36414 42.774 1.21652 42.774 0.0432129C46.96 0.0432129 51.1374 0.0432129 55.3494 0.0432129C55.3494 1.19939 55.3494 2.32988 55.3494 3.52888C53.8934 3.52888 52.4547 3.52888 50.9467 3.52888C50.9467 7.08307 50.9467 10.5602 50.9467 14.0887C49.6814 14.0887 48.4767 14.0887 47.2027 14.0887C47.2114 10.6201 47.2114 7.12589 47.2114 3.56314Z" fill="#141414" data-v-d7b9735c=""></path></g><defs data-v-d7b9735c=""><clipPath id="clip0" data-v-d7b9735c=""><rect width="96" height="14.2303" fill="currentColor" data-v-d7b9735c=""></rect></clipPath></defs></svg>